# Blender v2.79 (sub 0) OBJ File: 'test rock.blend'
# www.blender.org
mtllib test rock.mtl
o Sphere
v 0.088821 0.938917 -1.183422
v -0.018205 0.826643 -1.480214
v 0.000037 0.011640 -1.640179
v 0.000037 0.020430 -0.382721
v 0.146484 1.287866 -0.353591
v 0.220903 0.967700 -1.036693
v 0.183282 0.652790 -1.566134
v 0.308586 0.432243 -1.596379
v 0.272797 0.019636 -1.483325
v 0.270635 0.020729 -1.458066
v 0.146484 0.020430 -0.353591
v 0.270635 1.215337 -0.270635
v 0.505813 0.962984 -0.893638
v 0.587275 0.672425 -0.948214
v 0.533088 0.475573 -1.067976
v 0.653319 0.011640 -1.107197
v 0.500037 0.020729 -0.500037
v 0.270635 0.020430 -0.270635
v 0.353590 1.248798 -0.146484
v 0.653318 1.101430 -0.270635
v 0.751498 0.777007 -0.353591
v 0.823982 0.394323 -0.382721
v 0.853590 0.011640 -0.353591
v 0.653318 0.020729 -0.270635
v 0.353590 0.020430 -0.146484
v 0.347680 1.209592 -0.000037
v 0.707144 1.101430 -0.000037
v 0.859548 0.777007 -0.000037
v 0.796717 0.508372 -0.000037
v 0.923917 0.011640 -0.000037
v 0.707144 0.020729 -0.000037
v 0.382720 0.020430 -0.000037
v 0.353590 1.199947 0.146409
v 0.653318 1.101430 0.270561
v 0.853590 0.777007 0.353516
v 0.662947 0.289631 0.382646
v 0.853590 0.011640 0.353516
v 0.653318 0.020729 0.270561
v 0.353590 0.020430 0.146409
v 0.270635 1.187904 0.270561
v 0.500037 1.101430 0.499963
v 0.578418 0.777007 0.573708
v 0.601829 0.394323 0.601003
v 0.653318 0.011640 0.653244
v 0.500037 0.020729 0.499963
v 0.270635 0.020430 0.270561
v 0.146484 1.208301 0.353516
v 0.270635 1.101430 0.485021
v 0.320207 0.777007 0.652708
v 0.382720 0.394323 0.781937
v 0.353590 0.011640 0.853516
v 0.270635 0.020729 0.653244
v 0.146484 0.020430 0.353516
v 0.000037 1.245548 0.382646
v 0.000037 1.101430 0.707069
v -0.321194 0.754467 0.845302
v -0.203068 0.394323 0.914443
v -0.551968 0.011640 0.923842
v 0.000037 0.020729 0.707069
v 0.000037 0.020430 0.382646
v -0.146409 1.277312 0.353516
v -0.668554 0.944254 0.617379
v -0.752866 0.683878 0.904063
v -0.934651 0.394323 0.923842
v -0.905521 0.011640 0.853516
v -0.822566 0.020729 0.653244
v -0.146410 0.020430 0.353516
v -0.270561 1.327925 0.270561
v -0.903382 0.901177 0.499962
v -1.113558 0.643000 0.653244
v -1.259075 0.394323 0.707069
v -1.205249 0.011640 0.653244
v -1.051968 0.020729 0.499962
v -0.270561 0.020430 0.270560
v -0.353516 1.280248 0.146409
v -1.205249 0.954755 0.270560
v -1.351452 0.666880 0.361680
v -1.475847 0.394323 0.382646
v -1.405521 0.011640 0.353516
v -1.205249 0.020729 0.270560
v -0.353516 0.020430 0.146409
v -0.396154 1.321607 -0.007587
v -1.047994 0.972659 -0.079960
v -1.084819 0.726677 -0.099753
v -1.214177 0.389520 -0.051864
v -1.264228 0.011640 -0.000038
v -1.259074 0.020729 -0.000038
v -0.382646 0.020430 -0.000038
v -0.353516 1.293654 -0.146484
v -0.653244 1.101430 -0.270636
v -0.853516 0.777007 -0.353591
v -0.923842 0.394323 -0.382721
v -0.853516 0.011640 -0.353591
v -0.653244 0.020729 -0.270636
v -0.353516 0.020430 -0.146484
v -0.270561 1.368595 -0.270635
v -0.379188 1.017031 -0.865480
v -0.603475 0.695842 -0.610933
v -0.639711 0.360399 -0.918593
v -0.654550 0.014215 -1.081653
v -0.499962 0.020729 -1.304785
v -0.270561 0.020430 -0.270635
v -0.146409 1.318203 -0.353591
v -0.136431 0.907045 -1.129684
v -0.252883 0.815268 -1.402766
v -0.270909 0.394323 -1.593309
v -0.462892 0.011640 -1.515097
v -0.270560 0.020729 -1.458066
v -0.146409 0.020430 -0.353591
v -0.072157 1.261971 0.037124
v 0.000037 1.277684 -0.382721
v 0.000038 0.287336 -1.681662
v 0.000038 0.020729 -1.511891
v -0.010182 0.020005 0.029283
vn 0.0001 -1.0000 -0.0003
vn 0.4238 -0.2193 -0.8788
vn 0.4224 0.7729 -0.4735
vn -0.0742 0.9969 0.0246
vn 0.0002 -1.0000 -0.0010
vn -0.0109 -0.9978 0.0660
vn 0.0155 0.2943 -0.9556
vn 0.1198 0.9122 -0.3919
vn 0.0006 -1.0000 -0.0009
vn -0.0314 -0.9995 0.0084
vn 0.8264 0.3098 -0.4701
vn 0.3387 0.8886 -0.3092
vn 0.0007 -1.0000 -0.0003
vn 0.8301 0.0331 -0.5566
vn 0.5994 0.5778 -0.5540
vn 0.3534 0.8994 0.2574
vn 0.9352 0.1155 -0.3347
vn 0.2726 0.9158 -0.2948
vn 0.0008 -1.0000 -0.0005
vn 0.9356 0.1693 -0.3098
vn 0.8973 0.3281 -0.2952
vn -0.0645 0.9735 -0.2193
vn 0.0009 -1.0000 -0.0006
vn -0.0302 -0.9995 0.0109
vn 0.0009 -1.0000 -0.0002
vn 0.9815 0.1722 -0.0841
vn 0.8969 0.3761 -0.2326
vn 0.1422 0.9547 0.2613
vn 0.0011 -1.0000 -0.0002
vn -0.0419 -0.9991 0.0083
vn 0.9935 0.0197 -0.1121
vn 0.3684 0.9286 0.0450
vn 0.8710 0.4841 0.0834
vn 0.1288 0.9899 0.0600
vn 0.0011 -1.0000 0.0002
vn -0.0419 -0.9991 -0.0083
vn 0.9456 -0.3137 0.0863
vn 0.2892 0.9557 0.0553
vn 0.0009 -1.0000 0.0002
vn 0.8730 0.3452 0.3446
vn 0.0010 -1.0000 0.0006
vn -0.0355 -0.9991 -0.0237
vn 0.7761 -0.1089 0.6211
vn 0.2169 0.9599 0.1776
vn 0.0008 -1.0000 0.0005
vn 0.8677 0.3310 0.3709
vn 0.6533 0.4309 0.6225
vn 0.1012 0.9815 0.1628
vn 0.1245 0.9202 0.3711
vn 0.0005 -1.0000 0.0008
vn 0.5857 0.1461 0.7972
vn 0.1212 0.3671 0.9223
vn 0.1865 0.9817 0.0377
vn 0.0007 -1.0000 0.0010
vn -0.0237 -0.9991 -0.0355
vn 0.4657 0.2272 0.8553
vn 0.0002 -1.0000 0.0009
vn 0.1347 0.0382 0.9902
vn 0.3965 0.2430 0.8853
vn 0.2455 0.9694 -0.0052
vn 0.0002 -1.0000 0.0012
vn -0.0052 -0.9988 -0.0494
vn 0.2387 0.3043 0.9222
vn 0.3129 0.8655 0.3912
vn 0.2115 0.9774 0.0023
vn -0.0002 -1.0000 0.0012
vn 0.0040 -0.9993 -0.0375
vn 0.0501 0.1306 0.9902
vn -0.2026 0.8407 0.5021
vn -0.0001 -1.0000 0.0009
vn -0.0560 -0.0560 0.9969
vn -0.1523 0.6328 0.7591
vn 0.0237 -0.9991 -0.0355
vn -0.5281 0.4219 0.7369
vn -0.2868 0.7889 0.5435
vn -0.0003 -1.0000 0.0004
vn -0.5453 -0.1915 0.8161
vn -0.4387 0.7131 0.5469
vn 0.3553 0.9340 0.0381
vn -0.0007 -1.0000 0.0010
vn -0.0003 -1.0000 0.0002
vn -0.8161 -0.1915 0.5453
vn -0.5061 0.6053 0.6144
vn -0.0632 0.9451 -0.3207
vn -0.0010 -1.0000 0.0007
vn 0.0355 -0.9991 -0.0237
vn -0.7116 0.4464 0.5426
vn -0.3420 0.8565 0.3865
vn -0.8898 -0.0373 -0.4548
vn -0.8697 0.2406 -0.4310
vn 0.1474 0.9647 0.2183
vn -0.0012 -1.0000 0.0002
vn 0.0934 -0.9955 0.0131
vn -0.8314 0.2927 -0.4723
vn -0.4088 0.9125 0.0143
vn -0.0003 -1.0000 0.0001
vn -0.0011 -1.0000 -0.0002
vn 0.0531 -0.9948 0.0865
vn -0.7415 0.1889 -0.6438
vn -0.4237 0.8543 -0.3010
vn -0.0004 -1.0000 -0.0007
vn -0.6951 -0.0944 -0.7127
vn -0.6054 0.3778 -0.7005
vn 0.1973 0.9710 -0.1348
vn -0.7445 0.3708 -0.5552
vn -0.5490 0.7864 -0.2830
vn -0.0008 -1.0000 -0.0002
vn -0.9341 -0.0055 -0.3569
vn -0.7626 0.3583 -0.5386
vn -0.1744 0.8902 0.4208
vn -0.0009 -1.0000 -0.0006
vn 0.0471 -0.9989 0.0079
vn -0.0002 -1.0000 -0.0003
vn -0.8566 0.2925 -0.4250
vn -0.7019 0.5966 -0.3890
vn 0.4063 0.9121 0.0541
vn -0.0006 -1.0000 -0.0009
vn 0.0714 -0.9959 0.0556
vn -0.8637 0.3190 -0.3903
vn -0.0731 0.8738 -0.4809
vn -0.1671 0.9472 -0.2736
vn 0.2812 0.9559 0.0841
vn -0.0002 -1.0000 -0.0010
vn 0.0190 -0.9968 0.0780
vn -0.2261 0.3681 -0.9019
vn -0.0754 0.8987 -0.4321
vn -0.0001 -1.0000 -0.0003
vn -0.2901 -0.0887 -0.9529
usemtl Material.001
s off
f 4//1 113//1 10//1 11//1
f 3//2 112//2 8//2 9//2
f 2//3 1//3 6//3 7//3
f 111//4 110//4 5//4
f 114//5 4//5 11//5
f 113//6 3//6 9//6 10//6
f 112//7 2//7 7//7 8//7
f 1//8 111//8 5//8 6//8
f 114//9 11//9 18//9
f 10//10 9//10 16//10 17//10
f 8//11 7//11 14//11 15//11
f 6//12 5//12 12//12 13//12
f 11//13 10//13 17//13 18//13
f 9//14 8//14 15//14 16//14
f 7//15 6//15 13//15 14//15
f 5//16 110//16 12//16
f 15//17 14//17 21//17 22//17
f 13//18 12//18 19//18 20//18
f 18//19 17//19 24//19 25//19
f 16//20 15//20 22//20 23//20
f 14//21 13//21 20//21 21//21
f 12//22 110//22 19//22
f 114//23 18//23 25//23
f 17//24 16//24 23//24 24//24
f 25//25 24//25 31//25 32//25
f 23//26 22//26 29//26 30//26
f 21//27 20//27 27//27 28//27
f 19//28 110//28 26//28
f 114//29 25//29 32//29
f 24//30 23//30 30//30 31//30
f 22//31 21//31 28//31 29//31
f 20//32 19//32 26//32 27//32
f 28//33 27//33 34//33 35//33
f 26//34 110//34 33//34
f 114//35 32//35 39//35
f 31//36 30//36 37//36 38//36
f 29//37 28//37 35//37 36//37
f 27//38 26//38 33//38 34//38
f 32//39 31//39 38//39 39//39
f 30//40 29//40 36//40 37//40
f 114//41 39//41 46//41
f 38//42 37//42 44//42 45//42
f 36//43 35//43 42//43 43//43
f 34//44 33//44 40//44 41//44
f 39//45 38//45 45//45 46//45
f 37//46 36//46 43//46 44//46
f 35//47 34//47 41//47 42//47
f 33//48 110//48 40//48
f 41//49 40//49 47//49 48//49
f 46//50 45//50 52//50 53//50
f 44//51 43//51 50//51 51//51
f 42//52 41//52 48//52 49//52
f 40//53 110//53 47//53
f 114//54 46//54 53//54
f 45//55 44//55 51//55 52//55
f 43//56 42//56 49//56 50//56
f 53//57 52//57 59//57 60//57
f 51//58 50//58 57//58 58//58
f 49//59 48//59 55//59 56//59
f 47//60 110//60 54//60
f 114//61 53//61 60//61
f 52//62 51//62 58//62 59//62
f 50//63 49//63 56//63 57//63
f 48//64 47//64 54//64 55//64
f 54//65 110//65 61//65
f 114//66 60//66 67//66
f 59//67 58//67 65//67 66//67
f 57//68 56//68 63//68 64//68
f 55//69 54//69 61//69 62//69
f 60//70 59//70 66//70 67//70
f 58//71 57//71 64//71 65//71
f 56//72 55//72 62//72 63//72
f 66//73 65//73 72//73 73//73
f 64//74 63//74 70//74 71//74
f 62//75 61//75 68//75 69//75
f 67//76 66//76 73//76 74//76
f 65//77 64//77 71//77 72//77
f 63//78 62//78 69//78 70//78
f 61//79 110//79 68//79
f 114//80 67//80 74//80
f 74//81 73//81 80//81 81//81
f 72//82 71//82 78//82 79//82
f 70//83 69//83 76//83 77//83
f 68//84 110//84 75//84
f 114//85 74//85 81//85
f 73//86 72//86 79//86 80//86
f 71//87 70//87 77//87 78//87
f 69//88 68//88 75//88 76//88
f 79//89 78//89 85//89 86//89
f 77//90 76//90 83//90 84//90
f 75//91 110//91 82//91
f 114//92 81//92 88//92
f 80//93 79//93 86//93 87//93
f 78//94 77//94 84//94 85//94
f 76//95 75//95 82//95 83//95
f 81//96 80//96 87//96 88//96
f 114//97 88//97 95//97
f 87//98 86//98 93//98 94//98
f 85//99 84//99 91//99 92//99
f 83//100 82//100 89//100 90//100
f 88//101 87//101 94//101 95//101
f 86//102 85//102 92//102 93//102
f 84//103 83//103 90//103 91//103
f 82//104 110//104 89//104
f 92//105 91//105 98//105 99//105
f 90//106 89//106 96//106 97//106
f 95//107 94//107 101//107 102//107
f 93//108 92//108 99//108 100//108
f 91//109 90//109 97//109 98//109
f 89//110 110//110 96//110
f 114//111 95//111 102//111
f 94//112 93//112 100//112 101//112
f 102//113 101//113 108//113 109//113
f 100//114 99//114 106//114 107//114
f 98//115 97//115 104//115 105//115
f 96//116 110//116 103//116
f 114//117 102//117 109//117
f 101//118 100//118 107//118 108//118
f 99//119 98//119 105//119 106//119
f 97//120 96//120 103//120 104//120
f 105//121 104//121 1//121 2//121
f 103//122 110//122 111//122
f 114//123 109//123 4//123
f 108//124 107//124 3//124 113//124
f 106//125 105//125 2//125 112//125
f 104//126 103//126 111//126 1//126
f 109//127 108//127 113//127 4//127
f 107//128 106//128 112//128 3//128
