# Blender v2.79 (sub 0) OBJ File: 'Tree.blend'
# www.blender.org
mtllib Tree.mtl
o Cylinder
v -0.002321 -0.147653 -0.292603
v -0.002321 0.373133 -0.292603
v 0.110659 -0.147653 -0.266816
v 0.110659 0.373133 -0.266816
v 0.201263 -0.147653 -0.194563
v 0.201263 0.373133 -0.194563
v 0.251544 -0.147653 -0.090153
v 0.251544 0.373133 -0.090153
v 0.251544 -0.147653 0.025733
v 0.251544 0.373133 0.025733
v 0.201263 -0.147653 0.130142
v 0.201263 0.373133 0.130142
v 0.110659 -0.147653 0.202396
v 0.110659 0.373133 0.202396
v -0.002321 -0.147653 0.228183
v -0.002321 0.373133 0.228183
v -0.115301 -0.147653 0.202396
v -0.115301 0.373133 0.202396
v -0.205904 -0.147653 0.130142
v -0.205904 0.373133 0.130142
v -0.256185 -0.147653 0.025733
v -0.256185 0.373133 0.025733
v -0.256185 -0.147653 -0.090153
v -0.256185 0.373133 -0.090153
v -0.205904 -0.147653 -0.194563
v -0.205904 0.373133 -0.194563
v -0.115301 -0.147653 -0.266816
v -0.115301 0.373133 -0.266816
v -0.002321 -0.334605 -0.292603
v 0.110659 -0.334605 -0.266816
v 0.201263 -0.334605 -0.194563
v 0.251544 -0.334605 -0.090153
v 0.251544 -0.334605 0.025733
v 0.201263 -0.334605 0.130142
v 0.110659 -0.334605 0.202396
v -0.002321 -0.334605 0.228183
v -0.115301 -0.334605 0.202396
v -0.205904 -0.334605 0.130142
v -0.256185 -0.334605 0.025733
v -0.256185 -0.334605 -0.090153
v -0.205904 -0.334605 -0.194563
v -0.115301 -0.334605 -0.266816
vn 0.2225 0.0000 -0.9749
vn 0.6235 0.0000 -0.7818
vn 0.9010 0.0000 -0.4339
vn 1.0000 0.0000 0.0000
vn 0.9010 0.0000 0.4339
vn 0.6235 0.0000 0.7818
vn 0.2225 0.0000 0.9749
vn -0.2225 0.0000 0.9749
vn -0.6235 0.0000 0.7818
vn -0.9010 0.0000 0.4339
vn -1.0000 0.0000 0.0000
vn -0.9010 0.0000 -0.4339
vn 0.0000 1.0000 0.0000
vn -0.6235 0.0000 -0.7818
vn -0.2225 0.0000 -0.9749
vn 0.0000 -1.0000 0.0000
usemtl Material.001
s off
f 1//1 2//1 4//1 3//1
f 3//2 4//2 6//2 5//2
f 5//3 6//3 8//3 7//3
f 7//4 8//4 10//4 9//4
f 9//5 10//5 12//5 11//5
f 11//6 12//6 14//6 13//6
f 13//7 14//7 16//7 15//7
f 15//8 16//8 18//8 17//8
f 17//9 18//9 20//9 19//9
f 19//10 20//10 22//10 21//10
f 21//11 22//11 24//11 23//11
f 23//12 24//12 26//12 25//12
f 4//13 2//13 28//13 26//13 24//13 22//13 20//13 18//13 16//13 14//13 12//13 10//13 8//13 6//13
f 25//14 26//14 28//14 27//14
f 27//15 28//15 2//15 1//15
f 3//2 5//2 31//2 30//2
f 29//16 30//16 31//16 32//16 33//16 34//16 35//16 36//16 37//16 38//16 39//16 40//16 41//16 42//16
f 13//7 15//7 36//7 35//7
f 23//12 25//12 41//12 40//12
f 9//5 11//5 34//5 33//5
f 19//10 21//10 39//10 38//10
f 5//3 7//3 32//3 31//3
f 15//8 17//8 37//8 36//8
f 1//1 3//1 30//1 29//1
f 25//14 27//14 42//14 41//14
f 11//6 13//6 35//6 34//6
f 21//11 23//11 40//11 39//11
f 7//4 9//4 33//4 32//4
f 17//9 19//9 38//9 37//9
f 27//15 1//15 29//15 42//15
o Cone
v -0.006571 2.241270 -0.583201
v 0.230795 2.241270 -0.529024
v 0.421147 2.241270 -0.377223
v 0.526785 2.241270 -0.157864
v 0.526785 2.241270 0.085606
v 0.421147 2.241270 0.304965
v 0.230795 2.241270 0.456766
v -0.006571 2.241270 0.510943
v -0.243936 2.241270 0.456766
v -0.434289 2.241270 0.304965
v -0.006571 3.335414 -0.036129
v -0.539927 2.241270 0.085606
v -0.539927 2.241270 -0.157864
v -0.434289 2.241270 -0.377223
v -0.243936 2.241270 -0.529024
v -0.006571 2.241270 -0.135145
v 0.036391 2.241270 -0.125340
v 0.070843 2.241270 -0.097865
v 0.089963 2.241270 -0.058162
v 0.089963 2.241270 -0.014096
v 0.070843 2.241270 0.025606
v 0.036391 2.241270 0.053081
v -0.006571 2.241270 0.062887
v -0.049532 2.241270 0.053081
v -0.083985 2.241270 0.025606
v -0.103104 2.241270 -0.014096
v -0.103104 2.241270 -0.058162
v -0.083985 2.241270 -0.097865
v -0.049532 2.241270 -0.125340
v -0.006571 1.434725 -0.783238
v 0.317588 1.434725 -0.709251
v 0.577542 1.434725 -0.501944
v 0.721807 1.434725 -0.202376
v 0.721807 1.434725 0.130118
v 0.577542 1.434725 0.429686
v 0.317588 1.434725 0.636993
v -0.006571 1.434725 0.710979
v -0.330729 1.434725 0.636993
v -0.590684 1.434725 0.429686
v -0.734948 1.434725 0.130118
v -0.734948 1.434725 -0.202376
v -0.590684 1.434725 -0.501944
v -0.330729 1.434725 -0.709251
v -0.006571 1.434725 -0.211765
v 0.069635 1.434725 -0.194372
v 0.130747 1.434725 -0.145636
v 0.164662 1.434725 -0.075212
v 0.164662 1.434725 0.002954
v 0.130747 1.434725 0.073378
v 0.069635 1.434725 0.122114
v -0.006571 1.434725 0.139507
v -0.082776 1.434725 0.122114
v -0.143889 1.434725 0.073378
v -0.177803 1.434725 0.002954
v -0.177803 1.434725 -0.075212
v -0.143889 1.434725 -0.145636
v -0.082776 1.434725 -0.194372
v -0.006571 0.363974 -1.014057
v 0.417736 0.363974 -0.917212
v 0.758004 0.363974 -0.645857
v 0.946839 0.363974 -0.253738
v 0.946839 0.363974 0.181480
v 0.758004 0.363974 0.573599
v 0.417736 0.363974 0.844953
v -0.006571 0.363974 0.941799
v -0.430878 0.363974 0.844953
v -0.771145 0.363974 0.573599
v -0.959980 0.363974 0.181480
v -0.959980 0.363974 -0.253738
v -0.771145 0.363974 -0.645857
v -0.430878 0.363974 -0.917212
v -0.006571 0.363769 -0.321683
v 0.117326 0.363769 -0.293404
v 0.216684 0.363769 -0.214169
v 0.271824 0.363769 -0.099671
v 0.271824 0.363769 0.027413
v 0.216684 0.363769 0.141911
v 0.117326 0.363769 0.221146
v -0.006571 0.363769 0.249425
v -0.130468 0.363769 0.221146
v -0.229826 0.363769 0.141911
v -0.284965 0.363769 0.027413
v -0.284965 0.363769 -0.099671
v -0.229826 0.363769 -0.214169
v -0.130468 0.363769 -0.293404
vn 0.2000 0.4382 -0.8764
vn 0.5604 0.4382 -0.7028
vn 0.8099 0.4382 -0.3900
vn 0.8989 0.4382 0.0000
vn 0.8099 0.4382 0.3900
vn 0.5604 0.4382 0.7028
vn 0.2000 0.4382 0.8764
vn -0.2000 0.4382 0.8764
vn -0.5604 0.4382 0.7028
vn -0.8099 0.4382 0.3900
vn -0.8989 0.4382 0.0000
vn -0.8099 0.4382 -0.3900
vn -0.5604 0.4382 -0.7028
vn -0.2000 0.4382 -0.8764
vn 0.0000 -1.0000 -0.0000
vn -0.1752 0.6167 -0.7675
vn 0.1752 0.6167 0.7675
vn -0.1752 0.6167 0.7675
vn 0.1752 0.6167 -0.7675
vn -0.4908 0.6167 0.6155
vn 0.4908 0.6167 -0.6155
vn -0.7092 0.6167 0.3416
vn 0.7092 0.6167 -0.3416
vn -0.7872 0.6167 0.0000
vn 0.7872 0.6167 0.0000
vn -0.7092 0.6167 -0.3416
vn 0.7092 0.6167 0.3416
vn -0.4908 0.6167 -0.6155
vn 0.4908 0.6167 0.6155
vn 0.5035 0.5899 -0.6313
vn -0.0003 -1.0000 0.0000
vn -0.7275 0.5899 0.3504
vn 0.7275 0.5899 -0.3504
vn -0.8075 0.5899 0.0000
vn 0.8075 0.5899 0.0000
vn -0.7275 0.5899 -0.3504
vn 0.7275 0.5899 0.3504
vn -0.5035 0.5899 -0.6313
vn 0.5035 0.5899 0.6313
vn -0.1797 0.5899 -0.7873
vn 0.1797 0.5899 0.7873
vn -0.1797 0.5899 0.7873
vn 0.1797 0.5899 -0.7873
vn -0.5035 0.5899 0.6313
vn 0.0003 -1.0000 0.0000
vn -0.0003 -1.0000 -0.0001
vn 0.0003 -1.0000 0.0001
vn -0.0002 -1.0000 -0.0002
vn 0.0002 -1.0000 0.0002
vn -0.0001 -1.0000 -0.0003
vn 0.0001 -1.0000 0.0003
vn -0.0001 -1.0000 0.0003
vn 0.0001 -1.0000 -0.0003
vn -0.0002 -1.0000 0.0002
vn 0.0002 -1.0000 -0.0002
vn -0.0003 -1.0000 0.0001
vn 0.0003 -1.0000 -0.0001
usemtl Material.002
s off
f 43//17 53//17 44//17
f 44//18 53//18 45//18
f 45//19 53//19 46//19
f 46//20 53//20 47//20
f 47//21 53//21 48//21
f 48//22 53//22 49//22
f 49//23 53//23 50//23
f 50//24 53//24 51//24
f 51//25 53//25 52//25
f 52//26 53//26 54//26
f 54//27 53//27 55//27
f 55//28 53//28 56//28
f 56//29 53//29 57//29
f 57//30 53//30 43//30
f 48//31 49//31 64//31 63//31
f 71//32 58//32 72//32 85//32
f 56//31 57//31 71//31 70//31
f 57//31 43//31 58//31 71//31
f 45//31 46//31 61//31 60//31
f 52//31 54//31 68//31 67//31
f 49//31 50//31 65//31 64//31
f 46//31 47//31 62//31 61//31
f 54//31 55//31 69//31 68//31
f 43//31 44//31 59//31 58//31
f 50//31 51//31 66//31 65//31
f 47//31 48//31 63//31 62//31
f 55//31 56//31 70//31 69//31
f 51//31 52//31 67//31 66//31
f 44//31 45//31 60//31 59//31
f 79//31 80//31 94//31 93//31
f 64//33 65//33 79//33 78//33
f 65//34 66//34 80//34 79//34
f 58//35 59//35 73//35 72//35
f 66//36 67//36 81//36 80//36
f 59//37 60//37 74//37 73//37
f 67//38 68//38 82//38 81//38
f 60//39 61//39 75//39 74//39
f 68//40 69//40 83//40 82//40
f 61//41 62//41 76//41 75//41
f 69//42 70//42 84//42 83//42
f 62//43 63//43 77//43 76//43
f 70//44 71//44 85//44 84//44
f 63//45 64//45 78//45 77//45
f 87//46 88//46 102//46 101//46
f 72//31 73//31 87//31 86//31
f 80//31 81//31 95//31 94//31
f 73//31 74//31 88//31 87//31
f 81//31 82//31 96//31 95//31
f 74//31 75//31 89//31 88//31
f 82//31 83//31 97//31 96//31
f 75//31 76//31 90//31 89//31
f 83//31 84//31 98//31 97//31
f 76//31 77//31 91//31 90//31
f 84//31 85//31 99//31 98//31
f 77//31 78//31 92//31 91//31
f 85//31 72//31 86//31 99//31
f 78//31 79//31 93//31 92//31
f 110//47 111//47 125//47 124//47
f 95//48 96//48 110//48 109//48
f 88//49 89//49 103//49 102//49
f 96//50 97//50 111//50 110//50
f 89//51 90//51 104//51 103//51
f 97//52 98//52 112//52 111//52
f 90//53 91//53 105//53 104//53
f 98//54 99//54 113//54 112//54
f 91//55 92//55 106//55 105//55
f 99//56 86//56 100//56 113//56
f 92//57 93//57 107//57 106//57
f 93//58 94//58 108//58 107//58
f 86//59 87//59 101//59 100//59
f 94//60 95//60 109//60 108//60
f 114//31 115//31 116//31 117//31 118//31 119//31 120//31 121//31 122//31 123//31 124//31 125//31 126//31 127//31
f 103//61 104//61 118//61 117//61
f 111//62 112//62 126//62 125//62
f 104//63 105//63 119//63 118//63
f 112//64 113//64 127//64 126//64
f 105//65 106//65 120//65 119//65
f 113//66 100//66 114//66 127//66
f 106//67 107//67 121//67 120//67
f 107//68 108//68 122//68 121//68
f 100//69 101//69 115//69 114//69
f 108//70 109//70 123//70 122//70
f 101//71 102//71 116//71 115//71
f 109//72 110//72 124//72 123//72
f 102//73 103//73 117//73 116//73
