# Blender v2.79 (sub 0) OBJ File: 'Shop.blend'
# www.blender.org
mtllib Shop.mtl
o Cube.004_Cube.005
v -2.328264 3.223800 2.396254
v -2.328264 3.223800 -1.963746
v 2.091735 3.223800 2.396254
v 2.091735 4.343800 2.396254
v 2.091735 3.223800 -1.963746
v 2.091735 4.343800 -1.963746
vn 0.0000 0.0000 -1.0000
vn 1.0000 0.0000 0.0000
vn 0.0000 0.0000 1.0000
vn 0.0000 -1.0000 0.0000
vn -0.2456 0.9694 0.0000
usemtl Material.002
s off
f 2//1 6//1 5//1
f 5//2 6//2 4//2 3//2
f 3//3 4//3 1//3
f 2//4 5//4 3//4 1//4
f 6//5 2//5 1//5 4//5
o Cylinder.003
v -2.059002 0.001822 2.048052
v -2.059002 3.228735 2.048052
v -2.036868 0.001822 2.050232
v -2.036868 3.228735 2.050232
v -2.015584 0.001822 2.056688
v -2.015584 3.228735 2.056688
v -1.995970 0.001822 2.067173
v -1.995970 3.228735 2.067173
v -1.978777 0.001822 2.081282
v -1.978777 3.228735 2.081282
v -1.964667 0.001822 2.098475
v -1.964667 3.228735 2.098475
v -1.954183 0.001822 2.118090
v -1.954183 3.228735 2.118090
v -1.947726 0.001822 2.139374
v -1.947726 3.228735 2.139374
v -1.945546 0.001822 2.161508
v -1.945546 3.228735 2.161508
v -1.947726 0.001822 2.183642
v -1.947726 3.228735 2.183642
v -1.954183 0.001822 2.204926
v -1.954183 3.228735 2.204926
v -1.964667 0.001822 2.224541
v -1.964667 3.228735 2.224541
v -1.978777 0.001822 2.241734
v -1.978777 3.228735 2.241734
v -1.995970 0.001822 2.255843
v -1.995970 3.228735 2.255843
v -2.015585 0.001822 2.266328
v -2.015585 3.228735 2.266328
v -2.036868 0.001822 2.272784
v -2.036868 3.228735 2.272784
v -2.059002 0.001822 2.274964
v -2.059002 3.228735 2.274964
v -2.081137 0.001822 2.272784
v -2.081137 3.228735 2.272784
v -2.102420 0.001822 2.266328
v -2.102420 3.228735 2.266328
v -2.122035 0.001822 2.255843
v -2.122035 3.228735 2.255843
v -2.139228 0.001822 2.241734
v -2.139228 3.228735 2.241734
v -2.153338 0.001822 2.224541
v -2.153338 3.228735 2.224541
v -2.163822 0.001822 2.204926
v -2.163822 3.228735 2.204926
v -2.170279 0.001822 2.183642
v -2.170279 3.228735 2.183642
v -2.172459 0.001822 2.161508
v -2.172459 3.228735 2.161508
v -2.170279 0.001822 2.139374
v -2.170279 3.228735 2.139374
v -2.163822 0.001822 2.118090
v -2.163822 3.228735 2.118090
v -2.153338 0.001822 2.098475
v -2.153338 3.228735 2.098475
v -2.139228 0.001822 2.081282
v -2.139228 3.228735 2.081282
v -2.122035 0.001822 2.067172
v -2.122035 3.228735 2.067172
v -2.102420 0.001822 2.056688
v -2.102420 3.228735 2.056688
v -2.081136 0.001822 2.050232
v -2.081136 3.228735 2.050232
vn 0.0980 0.0000 -0.9952
vn 0.2903 0.0000 -0.9569
vn 0.4714 0.0000 -0.8819
vn 0.6344 0.0000 -0.7730
vn 0.7730 0.0000 -0.6344
vn 0.8819 0.0000 -0.4714
vn 0.9569 0.0000 -0.2903
vn 0.9952 0.0000 -0.0980
vn 0.9952 0.0000 0.0980
vn 0.9569 0.0000 0.2903
vn 0.8819 0.0000 0.4714
vn 0.7730 0.0000 0.6344
vn 0.6344 0.0000 0.7730
vn 0.4714 0.0000 0.8819
vn 0.2903 0.0000 0.9569
vn 0.0980 0.0000 0.9952
vn -0.0980 0.0000 0.9952
vn -0.2903 0.0000 0.9569
vn -0.4714 0.0000 0.8819
vn -0.6344 0.0000 0.7730
vn -0.7730 0.0000 0.6344
vn -0.8819 0.0000 0.4714
vn -0.9569 0.0000 0.2903
vn -0.9952 0.0000 0.0980
vn -0.9952 0.0000 -0.0980
vn -0.9569 0.0000 -0.2903
vn -0.8819 0.0000 -0.4714
vn -0.7730 0.0000 -0.6344
vn -0.6344 0.0000 -0.7730
vn -0.4714 0.0000 -0.8819
vn 0.0000 1.0000 0.0000
vn -0.2903 0.0000 -0.9569
vn -0.0980 0.0000 -0.9952
vn 0.0000 -1.0000 -0.0000
usemtl Material.003
s off
f 7//6 8//6 10//6 9//6
f 9//7 10//7 12//7 11//7
f 11//8 12//8 14//8 13//8
f 13//9 14//9 16//9 15//9
f 15//10 16//10 18//10 17//10
f 17//11 18//11 20//11 19//11
f 19//12 20//12 22//12 21//12
f 21//13 22//13 24//13 23//13
f 23//14 24//14 26//14 25//14
f 25//15 26//15 28//15 27//15
f 27//16 28//16 30//16 29//16
f 29//17 30//17 32//17 31//17
f 31//18 32//18 34//18 33//18
f 33//19 34//19 36//19 35//19
f 35//20 36//20 38//20 37//20
f 37//21 38//21 40//21 39//21
f 39//22 40//22 42//22 41//22
f 41//23 42//23 44//23 43//23
f 43//24 44//24 46//24 45//24
f 45//25 46//25 48//25 47//25
f 47//26 48//26 50//26 49//26
f 49//27 50//27 52//27 51//27
f 51//28 52//28 54//28 53//28
f 53//29 54//29 56//29 55//29
f 55//30 56//30 58//30 57//30
f 57//31 58//31 60//31 59//31
f 59//32 60//32 62//32 61//32
f 61//33 62//33 64//33 63//33
f 63//34 64//34 66//34 65//34
f 65//35 66//35 68//35 67//35
f 10//36 8//36 70//36 68//36 66//36 64//36 62//36 60//36 58//36 56//36 54//36 52//36 50//36 48//36 46//36 44//36 42//36 40//36 38//36 36//36 34//36 32//36 30//36 28//36 26//36 24//36 22//36 20//36 18//36 16//36 14//36 12//36
f 67//37 68//37 70//37 69//37
f 69//38 70//38 8//38 7//38
f 7//39 9//39 11//39 13//39 15//39 17//39 19//39 21//39 23//39 25//39 27//39 29//39 31//39 33//39 35//39 37//39 39//39 41//39 43//39 45//39 47//39 49//39 51//39 53//39 55//39 57//39 59//39 61//39 63//39 65//39 67//39 69//39
o Cylinder.002
v -2.043185 0.030057 -1.893848
v -2.043185 3.256969 -1.893848
v -2.021051 0.030057 -1.891668
v -2.021051 3.256969 -1.891668
v -1.999767 0.030057 -1.885212
v -1.999767 3.256969 -1.885212
v -1.980152 0.030057 -1.874728
v -1.980152 3.256969 -1.874728
v -1.962959 0.030057 -1.860618
v -1.962959 3.256969 -1.860618
v -1.948850 0.030057 -1.843425
v -1.948850 3.256969 -1.843425
v -1.938365 0.030057 -1.823810
v -1.938365 3.256969 -1.823810
v -1.931909 0.030057 -1.802526
v -1.931909 3.256969 -1.802526
v -1.929729 0.030057 -1.780392
v -1.929729 3.256969 -1.780392
v -1.931909 0.030057 -1.758258
v -1.931909 3.256969 -1.758258
v -1.938365 0.030057 -1.736974
v -1.938365 3.256969 -1.736974
v -1.948850 0.030057 -1.717359
v -1.948850 3.256969 -1.717359
v -1.962959 0.030057 -1.700166
v -1.962959 3.256969 -1.700166
v -1.980152 0.030057 -1.686057
v -1.980152 3.256969 -1.686057
v -1.999767 0.030057 -1.675572
v -1.999767 3.256969 -1.675572
v -2.021051 0.030057 -1.669116
v -2.021051 3.256969 -1.669116
v -2.043185 0.030057 -1.666936
v -2.043185 3.256969 -1.666936
v -2.065319 0.030057 -1.669116
v -2.065319 3.256969 -1.669116
v -2.086603 0.030057 -1.675572
v -2.086603 3.256969 -1.675572
v -2.106218 0.030057 -1.686057
v -2.106218 3.256969 -1.686057
v -2.123411 0.030057 -1.700167
v -2.123411 3.256969 -1.700167
v -2.137520 0.030057 -1.717359
v -2.137520 3.256969 -1.717359
v -2.148005 0.030057 -1.736974
v -2.148005 3.256969 -1.736974
v -2.154461 0.030057 -1.758258
v -2.154461 3.256969 -1.758258
v -2.156641 0.030057 -1.780392
v -2.156641 3.256969 -1.780392
v -2.154461 0.030057 -1.802526
v -2.154461 3.256969 -1.802526
v -2.148005 0.030057 -1.823810
v -2.148005 3.256969 -1.823810
v -2.137520 0.030057 -1.843425
v -2.137520 3.256969 -1.843425
v -2.123410 0.030057 -1.860618
v -2.123410 3.256969 -1.860618
v -2.106218 0.030057 -1.874728
v -2.106218 3.256969 -1.874728
v -2.086603 0.030057 -1.885212
v -2.086603 3.256969 -1.885212
v -2.065319 0.030057 -1.891668
v -2.065319 3.256969 -1.891668
vn 0.0980 0.0000 -0.9952
vn 0.2903 0.0000 -0.9569
vn 0.4714 0.0000 -0.8819
vn 0.6344 0.0000 -0.7730
vn 0.7730 0.0000 -0.6344
vn 0.8819 0.0000 -0.4714
vn 0.9569 0.0000 -0.2903
vn 0.9952 0.0000 -0.0980
vn 0.9952 0.0000 0.0980
vn 0.9569 0.0000 0.2903
vn 0.8819 0.0000 0.4714
vn 0.7730 0.0000 0.6344
vn 0.6344 0.0000 0.7730
vn 0.4714 0.0000 0.8819
vn 0.2903 0.0000 0.9569
vn 0.0980 0.0000 0.9952
vn -0.0980 0.0000 0.9952
vn -0.2903 0.0000 0.9569
vn -0.4714 0.0000 0.8819
vn -0.6344 0.0000 0.7730
vn -0.7730 0.0000 0.6344
vn -0.8819 0.0000 0.4714
vn -0.9569 0.0000 0.2903
vn -0.9952 0.0000 0.0980
vn -0.9952 0.0000 -0.0980
vn -0.9569 0.0000 -0.2903
vn -0.8819 0.0000 -0.4714
vn -0.7730 0.0000 -0.6344
vn -0.6344 0.0000 -0.7730
vn -0.4714 0.0000 -0.8819
vn 0.0000 1.0000 0.0000
vn -0.2903 0.0000 -0.9569
vn -0.0980 0.0000 -0.9952
vn 0.0000 -1.0000 0.0000
usemtl Material.003
s off
f 71//40 72//40 74//40 73//40
f 73//41 74//41 76//41 75//41
f 75//42 76//42 78//42 77//42
f 77//43 78//43 80//43 79//43
f 79//44 80//44 82//44 81//44
f 81//45 82//45 84//45 83//45
f 83//46 84//46 86//46 85//46
f 85//47 86//47 88//47 87//47
f 87//48 88//48 90//48 89//48
f 89//49 90//49 92//49 91//49
f 91//50 92//50 94//50 93//50
f 93//51 94//51 96//51 95//51
f 95//52 96//52 98//52 97//52
f 97//53 98//53 100//53 99//53
f 99//54 100//54 102//54 101//54
f 101//55 102//55 104//55 103//55
f 103//56 104//56 106//56 105//56
f 105//57 106//57 108//57 107//57
f 107//58 108//58 110//58 109//58
f 109//59 110//59 112//59 111//59
f 111//60 112//60 114//60 113//60
f 113//61 114//61 116//61 115//61
f 115//62 116//62 118//62 117//62
f 117//63 118//63 120//63 119//63
f 119//64 120//64 122//64 121//64
f 121//65 122//65 124//65 123//65
f 123//66 124//66 126//66 125//66
f 125//67 126//67 128//67 127//67
f 127//68 128//68 130//68 129//68
f 129//69 130//69 132//69 131//69
f 74//70 72//70 134//70 132//70 130//70 128//70 126//70 124//70 122//70 120//70 118//70 116//70 114//70 112//70 110//70 108//70 106//70 104//70 102//70 100//70 98//70 96//70 94//70 92//70 90//70 88//70 86//70 84//70 82//70 80//70 78//70 76//70
f 131//71 132//71 134//71 133//71
f 133//72 134//72 72//72 71//72
f 71//73 73//73 75//73 77//73 79//73 81//73 83//73 85//73 87//73 89//73 91//73 93//73 95//73 97//73 99//73 101//73 103//73 105//73 107//73 109//73 111//73 113//73 115//73 117//73 119//73 121//73 123//73 125//73 127//73 129//73 131//73 133//73
o Cylinder.001
v 1.874065 0.018617 2.076751
v 1.874065 3.245529 2.076751
v 1.896199 0.018617 2.078932
v 1.896199 3.245529 2.078932
v 1.917482 0.018617 2.085388
v 1.917482 3.245529 2.085388
v 1.937098 0.018617 2.095872
v 1.937098 3.245529 2.095872
v 1.954290 0.018617 2.109982
v 1.954290 3.245529 2.109982
v 1.968400 0.018617 2.127175
v 1.968400 3.245529 2.127175
v 1.978885 0.018617 2.146790
v 1.978885 3.245529 2.146790
v 1.985341 0.018617 2.168073
v 1.985341 3.245529 2.168073
v 1.987521 0.018617 2.190208
v 1.987521 3.245529 2.190208
v 1.985341 0.018617 2.212342
v 1.985341 3.245529 2.212342
v 1.978885 0.018617 2.233625
v 1.978885 3.245529 2.233625
v 1.968400 0.018617 2.253241
v 1.968400 3.245529 2.253241
v 1.954290 0.018617 2.270433
v 1.954290 3.245529 2.270433
v 1.937098 0.018617 2.284543
v 1.937098 3.245529 2.284543
v 1.917482 0.018617 2.295027
v 1.917482 3.245529 2.295027
v 1.896199 0.018617 2.301484
v 1.896199 3.245529 2.301484
v 1.874065 0.018617 2.303664
v 1.874065 3.245529 2.303664
v 1.851930 0.018617 2.301484
v 1.851930 3.245529 2.301484
v 1.830647 0.018617 2.295027
v 1.830647 3.245529 2.295027
v 1.811032 0.018617 2.284543
v 1.811032 3.245529 2.284543
v 1.793839 0.018617 2.270433
v 1.793839 3.245529 2.270433
v 1.779729 0.018617 2.253241
v 1.779729 3.245529 2.253241
v 1.769245 0.018617 2.233625
v 1.769245 3.245529 2.233625
v 1.762789 0.018617 2.212342
v 1.762789 3.245529 2.212342
v 1.760608 0.018617 2.190208
v 1.760608 3.245529 2.190208
v 1.762789 0.018617 2.168073
v 1.762789 3.245529 2.168073
v 1.769245 0.018617 2.146790
v 1.769245 3.245529 2.146790
v 1.779729 0.018617 2.127175
v 1.779729 3.245529 2.127175
v 1.793839 0.018617 2.109982
v 1.793839 3.245529 2.109982
v 1.811032 0.018617 2.095872
v 1.811032 3.245529 2.095872
v 1.830647 0.018617 2.085388
v 1.830647 3.245529 2.085388
v 1.851931 0.018617 2.078932
v 1.851931 3.245529 2.078932
vn 0.0980 0.0000 -0.9952
vn 0.2903 0.0000 -0.9569
vn 0.4714 0.0000 -0.8819
vn 0.6344 0.0000 -0.7730
vn 0.7730 0.0000 -0.6344
vn 0.8819 0.0000 -0.4714
vn 0.9569 0.0000 -0.2903
vn 0.9952 0.0000 -0.0980
vn 0.9952 0.0000 0.0980
vn 0.9569 0.0000 0.2903
vn 0.8819 0.0000 0.4714
vn 0.7730 0.0000 0.6344
vn 0.6344 0.0000 0.7730
vn 0.4714 0.0000 0.8819
vn 0.2903 0.0000 0.9569
vn 0.0980 0.0000 0.9952
vn -0.0980 0.0000 0.9952
vn -0.2903 0.0000 0.9569
vn -0.4714 0.0000 0.8819
vn -0.6344 0.0000 0.7730
vn -0.7730 0.0000 0.6344
vn -0.8819 0.0000 0.4714
vn -0.9569 0.0000 0.2903
vn -0.9952 0.0000 0.0980
vn -0.9952 0.0000 -0.0980
vn -0.9569 0.0000 -0.2903
vn -0.8819 0.0000 -0.4714
vn -0.7730 0.0000 -0.6344
vn -0.6344 0.0000 -0.7730
vn -0.4714 0.0000 -0.8819
vn 0.0000 1.0000 0.0000
vn -0.2903 0.0000 -0.9569
vn -0.0980 0.0000 -0.9952
vn 0.0000 -1.0000 -0.0000
usemtl Material.003
s off
f 135//74 136//74 138//74 137//74
f 137//75 138//75 140//75 139//75
f 139//76 140//76 142//76 141//76
f 141//77 142//77 144//77 143//77
f 143//78 144//78 146//78 145//78
f 145//79 146//79 148//79 147//79
f 147//80 148//80 150//80 149//80
f 149//81 150//81 152//81 151//81
f 151//82 152//82 154//82 153//82
f 153//83 154//83 156//83 155//83
f 155//84 156//84 158//84 157//84
f 157//85 158//85 160//85 159//85
f 159//86 160//86 162//86 161//86
f 161//87 162//87 164//87 163//87
f 163//88 164//88 166//88 165//88
f 165//89 166//89 168//89 167//89
f 167//90 168//90 170//90 169//90
f 169//91 170//91 172//91 171//91
f 171//92 172//92 174//92 173//92
f 173//93 174//93 176//93 175//93
f 175//94 176//94 178//94 177//94
f 177//95 178//95 180//95 179//95
f 179//96 180//96 182//96 181//96
f 181//97 182//97 184//97 183//97
f 183//98 184//98 186//98 185//98
f 185//99 186//99 188//99 187//99
f 187//100 188//100 190//100 189//100
f 189//101 190//101 192//101 191//101
f 191//102 192//102 194//102 193//102
f 193//103 194//103 196//103 195//103
f 138//104 136//104 198//104 196//104 194//104 192//104 190//104 188//104 186//104 184//104 182//104 180//104 178//104 176//104 174//104 172//104 170//104 168//104 166//104 164//104 162//104 160//104 158//104 156//104 154//104 152//104 150//104 148//104 146//104 144//104 142//104 140//104
f 195//105 196//105 198//105 197//105
f 197//106 198//106 136//106 135//106
f 135//107 137//107 139//107 141//107 143//107 145//107 147//107 149//107 151//107 153//107 155//107 157//107 159//107 161//107 163//107 165//107 167//107 169//107 171//107 173//107 175//107 177//107 179//107 181//107 183//107 185//107 187//107 189//107 191//107 193//107 195//107 197//107
o Cylinder
v 1.860506 0.009980 -1.886524
v 1.860506 3.236892 -1.886524
v 1.882640 0.009980 -1.884344
v 1.882640 3.236892 -1.884344
v 1.903924 0.009980 -1.877888
v 1.903924 3.236892 -1.877888
v 1.923539 0.009980 -1.867403
v 1.923539 3.236892 -1.867403
v 1.940732 0.009980 -1.853294
v 1.940732 3.236892 -1.853294
v 1.954841 0.009980 -1.836101
v 1.954841 3.236892 -1.836101
v 1.965326 0.009980 -1.816486
v 1.965326 3.236892 -1.816486
v 1.971782 0.009980 -1.795202
v 1.971782 3.236892 -1.795202
v 1.973962 0.009980 -1.773068
v 1.973962 3.236892 -1.773068
v 1.971782 0.009980 -1.750934
v 1.971782 3.236892 -1.750934
v 1.965326 0.009980 -1.729650
v 1.965326 3.236892 -1.729650
v 1.954841 0.009980 -1.710035
v 1.954841 3.236892 -1.710035
v 1.940732 0.009980 -1.692842
v 1.940732 3.236892 -1.692842
v 1.923539 0.009980 -1.678733
v 1.923539 3.236892 -1.678733
v 1.903924 0.009980 -1.668248
v 1.903924 3.236892 -1.668248
v 1.882640 0.009980 -1.661792
v 1.882640 3.236892 -1.661792
v 1.860506 0.009980 -1.659612
v 1.860506 3.236892 -1.659612
v 1.838372 0.009980 -1.661792
v 1.838372 3.236892 -1.661792
v 1.817088 0.009980 -1.668248
v 1.817088 3.236892 -1.668248
v 1.797473 0.009980 -1.678733
v 1.797473 3.236892 -1.678733
v 1.780280 0.009980 -1.692842
v 1.780280 3.236892 -1.692842
v 1.766171 0.009980 -1.710035
v 1.766171 3.236892 -1.710035
v 1.755686 0.009980 -1.729650
v 1.755686 3.236892 -1.729650
v 1.749230 0.009980 -1.750934
v 1.749230 3.236892 -1.750934
v 1.747050 0.009980 -1.773068
v 1.747050 3.236892 -1.773068
v 1.749230 0.009980 -1.795202
v 1.749230 3.236892 -1.795202
v 1.755686 0.009980 -1.816486
v 1.755686 3.236892 -1.816486
v 1.766171 0.009980 -1.836101
v 1.766171 3.236892 -1.836101
v 1.780280 0.009980 -1.853294
v 1.780280 3.236892 -1.853294
v 1.797473 0.009980 -1.867403
v 1.797473 3.236892 -1.867403
v 1.817088 0.009980 -1.877888
v 1.817088 3.236892 -1.877888
v 1.838372 0.009980 -1.884344
v 1.838372 3.236892 -1.884344
vn 0.0980 0.0000 -0.9952
vn 0.2903 0.0000 -0.9569
vn 0.4714 0.0000 -0.8819
vn 0.6344 0.0000 -0.7730
vn 0.7730 0.0000 -0.6344
vn 0.8819 0.0000 -0.4714
vn 0.9569 0.0000 -0.2903
vn 0.9952 0.0000 -0.0980
vn 0.9952 0.0000 0.0980
vn 0.9569 0.0000 0.2903
vn 0.8819 0.0000 0.4714
vn 0.7730 0.0000 0.6344
vn 0.6344 0.0000 0.7730
vn 0.4714 0.0000 0.8819
vn 0.2903 0.0000 0.9569
vn 0.0980 0.0000 0.9952
vn -0.0980 0.0000 0.9952
vn -0.2903 0.0000 0.9569
vn -0.4714 0.0000 0.8819
vn -0.6344 0.0000 0.7730
vn -0.7730 0.0000 0.6344
vn -0.8819 0.0000 0.4714
vn -0.9569 0.0000 0.2903
vn -0.9952 0.0000 0.0980
vn -0.9952 0.0000 -0.0980
vn -0.9569 0.0000 -0.2903
vn -0.8819 0.0000 -0.4714
vn -0.7730 0.0000 -0.6344
vn -0.6344 0.0000 -0.7730
vn -0.4714 0.0000 -0.8819
vn 0.0000 1.0000 0.0000
vn -0.2903 0.0000 -0.9569
vn -0.0980 0.0000 -0.9952
vn 0.0000 -1.0000 0.0000
usemtl Material.003
s off
f 199//108 200//108 202//108 201//108
f 201//109 202//109 204//109 203//109
f 203//110 204//110 206//110 205//110
f 205//111 206//111 208//111 207//111
f 207//112 208//112 210//112 209//112
f 209//113 210//113 212//113 211//113
f 211//114 212//114 214//114 213//114
f 213//115 214//115 216//115 215//115
f 215//116 216//116 218//116 217//116
f 217//117 218//117 220//117 219//117
f 219//118 220//118 222//118 221//118
f 221//119 222//119 224//119 223//119
f 223//120 224//120 226//120 225//120
f 225//121 226//121 228//121 227//121
f 227//122 228//122 230//122 229//122
f 229//123 230//123 232//123 231//123
f 231//124 232//124 234//124 233//124
f 233//125 234//125 236//125 235//125
f 235//126 236//126 238//126 237//126
f 237//127 238//127 240//127 239//127
f 239//128 240//128 242//128 241//128
f 241//129 242//129 244//129 243//129
f 243//130 244//130 246//130 245//130
f 245//131 246//131 248//131 247//131
f 247//132 248//132 250//132 249//132
f 249//133 250//133 252//133 251//133
f 251//134 252//134 254//134 253//134
f 253//135 254//135 256//135 255//135
f 255//136 256//136 258//136 257//136
f 257//137 258//137 260//137 259//137
f 202//138 200//138 262//138 260//138 258//138 256//138 254//138 252//138 250//138 248//138 246//138 244//138 242//138 240//138 238//138 236//138 234//138 232//138 230//138 228//138 226//138 224//138 222//138 220//138 218//138 216//138 214//138 212//138 210//138 208//138 206//138 204//138
f 259//139 260//139 262//139 261//139
f 261//140 262//140 200//140 199//140
f 199//141 201//141 203//141 205//141 207//141 209//141 211//141 213//141 215//141 217//141 219//141 221//141 223//141 225//141 227//141 229//141 231//141 233//141 235//141 237//141 239//141 241//141 243//141 245//141 247//141 249//141 251//141 253//141 255//141 257//141 259//141 261//141
o Cube.003_Cube.004
v 2.026454 1.353175 -1.907109
v 2.026454 -0.001360 -1.907109
v 2.026454 1.353175 -1.652572
v 2.026454 -0.001360 -1.652572
v -2.188082 1.353175 -1.907109
v -2.188082 -0.001360 -1.907109
v -2.188082 1.353175 -1.652572
v -2.188082 -0.001360 -1.652572
v -0.080814 1.353175 -1.652572
v -0.080814 -0.001360 -1.652572
v -0.080814 1.353175 -1.907109
v -0.080814 -0.001360 -1.907109
vn 1.0000 0.0000 0.0000
vn 0.0000 0.0000 -1.0000
vn 0.0000 -1.0000 0.0000
vn 0.0000 1.0000 0.0000
vn 0.0000 0.0000 1.0000
vn -1.0000 0.0000 0.0000
usemtl Material.001
s off
f 263//142 265//142 266//142 264//142
f 273//143 263//143 264//143 274//143
f 272//144 274//144 264//144 266//144
f 265//145 263//145 273//145 271//145
f 265//146 271//146 272//146 266//146
f 267//147 268//147 270//147 269//147
f 273//143 274//143 268//143 267//143
f 272//144 270//144 268//144 274//144
f 269//145 271//145 273//145 267//145
f 269//146 270//146 272//146 271//146
o Cube.002_Cube.003
v -2.182873 1.347761 -1.900889
v -2.182873 -0.006775 -1.900889
v -1.928335 1.347761 -1.900889
v -1.928335 -0.006775 -1.900889
v -2.182873 1.347761 2.313647
v -2.182873 -0.006775 2.313647
v -1.928335 1.347761 2.313647
v -1.928335 -0.006775 2.313647
v -1.928335 1.347761 0.206379
v -1.928335 -0.006775 0.206379
v -2.182873 1.347761 0.206379
v -2.182873 -0.006775 0.206379
vn 0.0000 0.0000 -1.0000
vn -1.0000 0.0000 0.0000
vn 0.0000 -1.0000 0.0000
vn 0.0000 1.0000 0.0000
vn 1.0000 0.0000 0.0000
vn 0.0000 0.0000 1.0000
usemtl Material.001
s off
f 275//148 277//148 278//148 276//148
f 285//149 275//149 276//149 286//149
f 284//150 286//150 276//150 278//150
f 277//151 275//151 285//151 283//151
f 277//152 283//152 284//152 278//152
f 279//153 280//153 282//153 281//153
f 285//149 286//149 280//149 279//149
f 284//150 282//150 280//150 286//150
f 281//151 283//151 285//151 279//151
f 281//152 282//152 284//152 283//152
o Cube.001_Cube.002
v 2.018838 -0.047309 2.309959
v 2.018838 1.347227 2.309959
v 1.764301 -0.047309 2.309959
v 1.764301 1.347227 2.309959
v 2.018838 -0.047309 -1.904577
v 2.018838 1.347227 -1.904577
v 1.764301 -0.047309 -1.904577
v 1.764301 1.347227 -1.904577
v 1.764301 -0.047309 0.202691
v 1.764301 1.347227 0.202691
v 2.018838 -0.047309 0.202691
v 2.018838 1.347227 0.202691
vn 0.0000 0.0000 1.0000
vn 1.0000 0.0000 -0.0000
vn 0.0000 1.0000 -0.0000
vn 0.0000 -1.0000 0.0000
vn -1.0000 0.0000 0.0000
vn 0.0000 0.0000 -1.0000
usemtl Material.001
s off
f 287//154 288//154 290//154 289//154
f 297//155 298//155 288//155 287//155
f 296//156 290//156 288//156 298//156
f 289//157 295//157 297//157 287//157
f 289//158 290//158 296//158 295//158
f 291//159 293//159 294//159 292//159
f 297//155 291//155 292//155 298//155
f 296//156 298//156 292//156 294//156
f 293//157 291//157 297//157 295//157
f 293//158 295//158 296//158 294//158
o Cube_Cube.001
v 2.020055 1.344651 2.051558
v 2.020055 -0.009884 2.051558
v 2.020055 1.344651 2.306096
v 2.020055 -0.009884 2.306096
v -2.194480 1.344651 2.051558
v -2.194480 -0.009884 2.051558
v -2.194480 1.344651 2.306096
v -2.194480 -0.009884 2.306096
v -0.087212 1.344651 2.306096
v -0.087212 -0.009884 2.306096
v -0.087212 1.344651 2.051558
v -0.087212 -0.009884 2.051558
vn 1.0000 0.0000 0.0000
vn 0.0000 0.0000 -1.0000
vn 0.0000 -1.0000 0.0000
vn 0.0000 1.0000 0.0000
vn 0.0000 0.0000 1.0000
vn -1.0000 0.0000 0.0000
usemtl Material.001
s off
f 299//160 301//160 302//160 300//160
f 309//161 299//161 300//161 310//161
f 308//162 310//162 300//162 302//162
f 301//163 299//163 309//163 307//163
f 301//164 307//164 308//164 302//164
f 303//165 304//165 306//165 305//165
f 309//161 310//161 304//161 303//161
f 308//162 306//162 304//162 310//162
f 305//163 307//163 309//163 303//163
f 305//164 306//164 308//164 307//164
